# xmcd
# 
# Track frame offsets:
#     150
#     36725
#     113267
#     143535
#     193060
#     226497
#     255680
#     285112
#     311560
# 
# Disc length: 4535
# 
# Revision: 5
# Processed by: cddbd v1.5.2PL0 Copyright (c) Steve Scherf et al.
# Submitted via: BonkEnc v1.0.8
# 
DISCID=7511b509
DTITLE=Cornell Dupree - Mr.2500 - Live At Birdland
DYEAR=2001
DGENRE=Fusion
TTITLE0=Them Changes
TTITLE1=The Getto
TTITLE2=Pick Up The Pieces(Text Version)
TTITLE3=What's Going On
TTITLE4=Something
TTITLE5=Bass Instinct(English Verson)
TTITLE6=Spirit IN The Dark
TTITLE7=Memphis Soul Stew
TTITLE8=Watching The River Flow
EXTD=YEAR: 2003/11/26
EXTT0=
EXTT1=
EXTT2=
EXTT3=
EXTT4=
EXTT5=
EXTT6=
EXTT7=
EXTT8=
PLAYORDER=
